<svg xmlns="http://www.w3.org/2000/svg" xmlns:xlink="http://www.w3.org/1999/xlink" viewBox="0 0 546.22 371.69"><defs><style>.cls-1{isolation:isolate;}.cls-2{fill:#b4caef;}.cls-3{fill:#aac1e2;}.cls-4{fill:#ccdef2;}.cls-5{fill:url(#linear-gradient);}.cls-6{fill:#98bff9;}.cls-7{fill:#699ced;}.cls-8{fill:#3d6fd3;}.cls-10,.cls-15,.cls-19,.cls-24,.cls-25,.cls-28,.cls-9{opacity:0.49;}.cls-10,.cls-15,.cls-19,.cls-24,.cls-25,.cls-9{mix-blend-mode:color-burn;}.cls-9{fill:url(#linear-gradient-2);}.cls-10{fill:url(#linear-gradient-3);}.cls-11{fill:#f9aa8f;}.cls-12{fill:#e2cd74;}.cls-13{fill:#3a2c54;}.cls-14{fill:#bc503f;}.cls-15{fill:url(#linear-gradient-4);}.cls-16{fill:#4c3c66;}.cls-17{fill:#463860;}.cls-18{fill:#f4e39a;}.cls-19{fill:url(#linear-gradient-5);}.cls-20{fill:#d85f52;}.cls-21{fill:#c6544b;}.cls-22{fill:#1b1c37;}.cls-23{fill:#aebdd3;}.cls-24{fill:url(#linear-gradient-6);}.cls-25{fill:url(#linear-gradient-7);}.cls-26{fill:url(#linear-gradient-8);}.cls-27{fill:#284fbc;}.cls-28{fill:url(#linear-gradient-9);}.cls-29{opacity:0.25;fill:url(#linear-gradient-10);}.cls-30{fill:#dfeaf4;}.cls-31{fill:#213330;}.cls-32{fill:#314341;}.cls-33{fill:none;stroke:#213330;stroke-miterlimit:10;stroke-width:2px;}.cls-34{fill:url(#linear-gradient-11);}.cls-35{fill:url(#linear-gradient-12);}.cls-36{fill:url(#linear-gradient-13);}.cls-37{fill:url(#linear-gradient-14);}.cls-38{fill:url(#linear-gradient-15);}.cls-39{fill:#38826d;}.cls-40{fill:url(#linear-gradient-16);}.cls-41{fill:url(#linear-gradient-17);}.cls-42{fill:#0b3d6b;}.cls-43{fill:url(#linear-gradient-18);}.cls-44{fill:url(#linear-gradient-19);}.cls-45{fill:#e6e6e6;}.cls-46{fill:url(#linear-gradient-20);}.cls-47{fill:#775047;}.cls-48{fill:url(#linear-gradient-21);}.cls-49{fill:url(#linear-gradient-22);}.cls-50{fill:url(#linear-gradient-23);}.cls-51{fill:#b4d3f9;}.cls-52{fill:url(#linear-gradient-24);}</style><linearGradient id="linear-gradient" x1="170.92" y1="54.54" x2="374.83" y2="54.54" gradientUnits="userSpaceOnUse"><stop offset="0.31" stop-color="#6479e8"/><stop offset="0.77" stop-color="#519dd4"/></linearGradient><linearGradient id="linear-gradient-2" x1="385.67" y1="223.31" x2="202.56" y2="154.05" gradientUnits="userSpaceOnUse"><stop offset="0" stop-color="#fff" stop-opacity="0"/><stop offset="0.8"/></linearGradient><linearGradient id="linear-gradient-3" x1="157.52" y1="193.65" x2="165.15" y2="144.31" xlink:href="#linear-gradient-2"/><linearGradient id="linear-gradient-4" x1="214.48" y1="151.37" x2="178.8" y2="172.75" xlink:href="#linear-gradient-2"/><linearGradient id="linear-gradient-5" x1="180.97" y1="182.41" x2="72.58" y2="73.39" xlink:href="#linear-gradient-2"/><linearGradient id="linear-gradient-6" x1="68.29" y1="396.18" x2="-8.47" y2="297.49" gradientUnits="userSpaceOnUse"><stop offset="0" stop-color="#aac1e2" stop-opacity="0"/><stop offset="0.8"/></linearGradient><linearGradient id="linear-gradient-7" x1="110.11" y1="371.47" x2="21.61" y2="257.68" xlink:href="#linear-gradient-6"/><linearGradient id="linear-gradient-8" x1="64.72" y1="349.78" x2="64.72" y2="349.73" xlink:href="#linear-gradient-6"/><linearGradient id="linear-gradient-9" x1="127.18" y1="287.55" x2="127.18" y2="253.82" gradientUnits="userSpaceOnUse"><stop offset="0" stop-color="#2244b3" stop-opacity="0"/><stop offset="0.8"/></linearGradient><linearGradient id="linear-gradient-10" x1="76.78" y1="269.83" x2="76.78" y2="-119.64" gradientUnits="userSpaceOnUse"><stop offset="0" stop-color="#284fbc" stop-opacity="0"/><stop offset="0.8"/></linearGradient><linearGradient id="linear-gradient-11" x1="482.34" y1="384.8" x2="482.34" y2="344.85" gradientUnits="userSpaceOnUse"><stop offset="0" stop-color="#fff"/><stop offset="0.84" stop-color="#cddfec"/></linearGradient><linearGradient id="linear-gradient-12" x1="385.35" y1="384.8" x2="385.35" y2="344.85" xlink:href="#linear-gradient-11"/><linearGradient id="linear-gradient-13" x1="433.84" y1="386.87" x2="433.84" y2="148.26" xlink:href="#linear-gradient-11"/><linearGradient id="linear-gradient-14" x1="474.42" y1="70.4" x2="450.19" y2="66.59" gradientUnits="userSpaceOnUse"><stop offset="0" stop-color="#f9aa8f"/><stop offset="1" stop-color="#f78e6b"/></linearGradient><linearGradient id="linear-gradient-15" x1="458.77" y1="70.83" x2="435.57" y2="14.97" xlink:href="#linear-gradient-14"/><linearGradient id="linear-gradient-16" x1="284.49" y1="267.68" x2="435.1" y2="267.68" gradientUnits="userSpaceOnUse"><stop offset="0" stop-color="#3c8c76"/><stop offset="0.46" stop-color="#317a64"/><stop offset="0.83" stop-color="#2b705a"/></linearGradient><linearGradient id="linear-gradient-17" x1="455.74" y1="263.13" x2="409.55" y2="148.46" xlink:href="#linear-gradient-16"/><linearGradient id="linear-gradient-18" x1="366.21" y1="194.85" x2="509.75" y2="98.75" gradientUnits="userSpaceOnUse"><stop offset="0" stop-color="#0b3d6b"/><stop offset="1" stop-color="#082d4e"/></linearGradient><linearGradient id="linear-gradient-19" x1="502.95" y1="222.63" x2="429.33" y2="45.37" xlink:href="#linear-gradient-18"/><linearGradient id="linear-gradient-20" x1="372.67" y1="191.47" x2="424.46" y2="191.47" gradientUnits="userSpaceOnUse"><stop offset="0" stop-color="#fff"/><stop offset="0.1" stop-color="#f5f5f5"/><stop offset="0.3" stop-color="#e7e7e7"/><stop offset="0.54" stop-color="#dfdfdf"/><stop offset="0.99" stop-color="#ddd"/></linearGradient><linearGradient id="linear-gradient-21" x1="475.15" y1="53.43" x2="457.76" y2="45.86" xlink:href="#linear-gradient-14"/><linearGradient id="linear-gradient-22" x1="502.94" y1="119.33" x2="516.92" y2="51.86" xlink:href="#linear-gradient-18"/><linearGradient id="linear-gradient-23" x1="534.75" y1="213.4" x2="534.73" y2="213.4" gradientUnits="userSpaceOnUse"><stop offset="0" stop-color="#80929b"/><stop offset="1" stop-color="#697780"/></linearGradient><linearGradient id="linear-gradient-24" x1="417.46" y1="135.13" x2="421.99" y2="258.99" gradientUnits="userSpaceOnUse"><stop offset="0.02" stop-color="#3c8c76"/><stop offset="0.47" stop-color="#317a64"/><stop offset="0.83" stop-color="#2b705a"/></linearGradient></defs><title>Contact Sales</title><g class="cls-1"><g id="Layer_1" data-name="Layer 1"><path class="cls-2" d="M294.63,124.6v36.05c0,2.62,4.9,4.76,2.84,4.76h-48.8c-2.06,0,2.84-2.14,2.84-4.76V124.6c0-2.62,1.67-4.76,3.73-4.76H290.9C293,119.84,294.63,122,294.63,124.6Z"/><path class="cls-3" d="M276.63,165.41A28.84,28.84,0,0,1,283.37,148l11.26-13V124.6c0-2.62-1.68-4.76-3.73-4.76H255.24c-2.06,0-3.73,2.14-3.73,4.76v36.05Z"/><path class="cls-4" d="M171,122a7.71,7.71,0,0,0,7.71,7.75H368.23a6.6,6.6,0,0,0,6.6-6.59L374.08,9.75C374.76,6,368.58,0,364.43.1L184,0a12.6,12.6,0,0,0-12.61,12.54Z"/><path class="cls-5" d="M181.67,0H364.08a10.88,10.88,0,0,1,10.75,11v98.08H170.92V11A10.87,10.87,0,0,1,181.67,0Z"/><rect class="cls-2" x="170.92" y="109.08" width="203.9" height="4.71" transform="translate(545.75 222.87) rotate(180)"/><ellipse class="cls-2" cx="273.31" cy="119.84" rx="4.27" ry="4.14"/><line class="cls-2" x1="260.02" y1="155.02" x2="250.94" y2="148.78"/><path class="cls-6" d="M194.1,42a2,2,0,1,1-2-2A2,2,0,0,1,194.1,42Z"/><path class="cls-6" d="M217.82,43H198.45a1,1,0,0,1-1-1h0a1,1,0,0,1,1-1h19.37a1,1,0,0,1,1,1h0A1,1,0,0,1,217.82,43Z"/><path class="cls-6" d="M194.1,50.43a2,2,0,1,1-2-2A2,2,0,0,1,194.1,50.43Z"/><path class="cls-6" d="M217.82,51.41H198.45a1,1,0,0,1-1-1h0a1,1,0,0,1,1-1h19.37a1,1,0,0,1,1,1h0A1,1,0,0,1,217.82,51.41Z"/><path class="cls-6" d="M194.1,58.85a2,2,0,1,1-2-2A2,2,0,0,1,194.1,58.85Z"/><path class="cls-6" d="M217.82,59.83H198.45a1,1,0,0,1-1-1h0a1,1,0,0,1,1-1h19.37a1,1,0,0,1,1,1h0A1,1,0,0,1,217.82,59.83Z"/><path class="cls-6" d="M194.1,67.27a2,2,0,1,1-2-2A2,2,0,0,1,194.1,67.27Z"/><path class="cls-6" d="M217.82,68.25H198.45a1,1,0,0,1-1-1h0a1,1,0,0,1,1-1h19.37a1,1,0,0,1,1,1h0A1,1,0,0,1,217.82,68.25Z"/><path class="cls-6" d="M194.1,75.69a2,2,0,1,1-2-2A2,2,0,0,1,194.1,75.69Z"/><path class="cls-6" d="M217.82,76.66H198.45a1,1,0,0,1-1-1h0a1,1,0,0,1,1-1h19.37a1,1,0,0,1,1,1h0A1,1,0,0,1,217.82,76.66Z"/><circle class="cls-7" cx="268.48" cy="54.53" r="35.47"/><path class="cls-6" d="M309.53,52.23v0a38.78,38.78,0,0,0-38.78-38.78V52.23Z"/><path class="cls-4" d="M149.77,353.69h47.52a18.93,18.93,0,0,0,16.9-27.47l-64.12-127a15.73,15.73,0,0,1,14.05-22.83h41a5.51,5.51,0,0,0,0-11h-41a26.74,26.74,0,0,0-23.87,38.81l64.12,127a7.93,7.93,0,0,1-7.08,11.51H149.77a5.5,5.5,0,0,0,0,11Z"/><path class="cls-4" d="M351.53,353H304a18.94,18.94,0,0,1-16.91-27.47l64.13-127a15.75,15.75,0,0,0-14.05-22.84h-41a5.5,5.5,0,1,1,0-11h41a26.74,26.74,0,0,1,23.87,38.8l-64.12,127A7.93,7.93,0,0,0,304,342h47.52a5.5,5.5,0,0,1,0,11Z"/><path class="cls-8" d="M115.07,164.23H377.35a3.86,3.86,0,0,1,3.86,3.86v4.78a3.86,3.86,0,0,1-3.86,3.86H115.07a.72.72,0,0,1-.72-.72V164.95A.72.72,0,0,1,115.07,164.23Z"/><path class="cls-9" d="M115.07,164.23h261a5.11,5.11,0,0,1,5.11,5.11v2.27a5.11,5.11,0,0,1-5.11,5.11h-261a.72.72,0,0,1-.72-.72V164.95a.72.72,0,0,1,.72-.72Z"/><path class="cls-8" d="M378.85,176V165c0-.4-.49-.72-1.09-.72H115.44c-.6,0-1.09.32-1.09.72V176c0,.4.49.72,1.09.72H377.76C378.36,176.72,378.85,176.4,378.85,176Z"/><path class="cls-4" d="M205.72,159.31h78.75a2.78,2.78,0,0,1,2.78,2.78v2.14a0,0,0,0,1,0,0H205.72a0,0,0,0,1,0,0v-4.92A0,0,0,0,1,205.72,159.31Z"/><path class="cls-10" d="M114.35,165v9.25l.73,2.52h87.49l7.11-12.49H115.07A.72.72,0,0,0,114.35,165Z"/><path class="cls-11" d="M148.58,93.24S167.14,79.17,166.42,74c-1.08-7.86-10.8-3.32-14.23,3.13-1.24,2.34-.09-5.89-1.3-6-3.26-.4-3,11-8.2,21.16"/><path class="cls-12" d="M96.81,94.62s12.44,44.45,23.34,37.56S142.09,91.4,142.09,91.4s2.63-4.56,8.2.63c0,0-.39,78.08-37.26,69.74"/><path class="cls-13" d="M153.56,270.87S140.68,321,139.73,341h9.1l28.84-69.51-10.29-15.41"/><path class="cls-14" d="M139.73,341s-.92,9.48-.85,20.57a3.45,3.45,0,0,0,3.46,3.43h24.32a3.59,3.59,0,0,0,3.6-3.24c.26-3.42-1.19-8.46-11.56-9.69-11.34-1.35-10.92-8.53-9.87-11.07"/><path class="cls-11" d="M121.12,43.59s2.76,16.26,1.16,19.2-5.47,5.48-5.47,5.48"/><path class="cls-11" d="M121.12,45.43s2.81,19.18-2.44,29-8.51,4.95-10.93,9.35-.89,7.47-.89,7.47L77.93,89.75s4.14-4.4,3.62-14.23S68.62,32.85,90.86,29,120.45,37.61,121.12,45.43Z"/><path class="cls-11" d="M193.29,161.77s4.77-3.41,5.53-8.13,6.78-10.4,9.73-8.69c1.19.69,1,2.21.75,3.16a1.57,1.57,0,0,0,.38,1.47c1.5,1.58,5,5.72,3.78,9.16-1.51,4.34-6.17,8.63-13.43,10.36"/><path class="cls-15" d="M205.77,163.67c.79-2.47-2.15-5.8-4.9-7.87s-.08-6.55,0-6.67a11,11,0,0,0-2,4.51c-.76,4.72-5.53,8.13-5.53,8.13L200,169.1a22.81,22.81,0,0,0,8-3.57S205,166.12,205.77,163.67Z"/><path class="cls-16" d="M37.81,217.17S26.18,253.88,59.29,266s118.38,5.54,118.38,5.54L207.13,341H217s-7.15-76.27-31.15-90c-22.64-13-93.92-35-93.92-35"/><path class="cls-17" d="M101.76,235.59c-4.23-12.1,11.35-12.2,11.35-12.2l-2-1.26C99.75,218.41,91.89,216,91.89,216l-28.79.64,4.73,51.83c37.22,8.63,109.84,3.06,109.84,3.06C178.58,255.2,108.43,254.66,101.76,235.59Z"/><path class="cls-2" d="M69,99.24a109.58,109.58,0,0,0,2.35-12.85c.23-3.28,21.48-7.36,35.34,2.52a3.84,3.84,0,0,1,1.14,4.3c-1,2.82-2,8.19-.05,16.61"/><path class="cls-12" d="M51.29,125.46c1.91-13,8.46-32.13,27.72-33.15C103.22,91,123.8,93.68,130.5,112c4.81,13.13,9.4,24.67,4.06,41.36-1.06,3.3-10.56,9.58-11.68,12.78-5.68,16.3-11.48,33.7-9.85,41,3.55,16,15.88,19.51-3,15.63-60.32-12.39-65-1.3-71.32-3.05-9.15-2.55,7.83-2.27,13.6-21.16C56.2,185.86,47.61,150.65,51.29,125.46Z"/><path class="cls-12" d="M130.5,112C123.79,93.68,103.22,91,79,92.31c-19.26,1-27.64,10.57-29.55,23.59-3.69,25.2-6.21,67.47-10.09,80.17-4.93,16.15-8.59,20.11-3.82,22.51,4.63,0,9.91-.05,15.89-.11a92.07,92.07,0,0,1,11.08-.11c48.44-.53,62.53-16.08,40.07-20s-31.8-19.55-2.47-29.82,31.75-11.68,31.75-11.68l-1.21-9.55C133.29,134.69,134.23,122.18,130.5,112Z"/><path class="cls-18" d="M111.67,94.91s26.84,4.52,40.49,44c14,40.42,38.92,17.56,45.72,20.4s3.4,9.63,0,11.9-35.7,27.09-68-14.22S102.05,91.68,111.67,94.91Z"/><path class="cls-14" d="M217,341c2.56,6.6,13.5,9.83,19.17,12,3.09,1.18,4.07,4.64,4.33,7.54a4.14,4.14,0,0,1-4.15,4.46H211.37a3.12,3.12,0,0,1-3-4h0c.57-2-1.23-20-1.23-20"/><path class="cls-19" d="M151.41,162.42c-4.82-22.66,1-19.52,5.18-13.33h0a66.1,66.1,0,0,1-4.43-10.18c-13.65-39.48-40.49-44-40.49-44-9.62-3.23-14.1,20.76,18.21,62.08a84.55,84.55,0,0,0,8.61,9.52l2.7,2.42a58.32,58.32,0,0,0,7.61,5.48C151.62,175.11,153.64,172.94,151.41,162.42Z"/><path class="cls-20" d="M127.65,28.24S137.12,46,116.81,61.11s23.33,51.84-.56,76.05-7.76,35.09-3.86,39.56c6.44,7.38,9.14,21.21-3.51,32.33S44.69,202.85,52,161.77,73.61,109.44,63.76,90C53.67,70.15,51.38,18.06,91,13,123.25,8.83,127.65,28.24,127.65,28.24Z"/><path class="cls-21" d="M92.21,12.84c-.53.08-1.23.19-2,.37l3-.47Z"/><path class="cls-21" d="M104.61,190.77C96.4,175.52,83.37,168.51,94.51,143c4.63-10.57,14.32-19.63,11.3-35C103.26,95,86.74,82.1,93.42,66.47s-13.21-19-16.64-35.65C74.22,18.33,84.71,14.4,90.16,13.21l-3.55.56C51.58,22,54.06,70.91,63.76,90c8.92,17.58-2,28.46-9.54,60.89l7.9,45.42c14,14.86,37.5,19.65,46.17,13.17C112.81,205.17,112,204.46,104.61,190.77Z"/><path class="cls-22" d="M22.86,365.08a6.61,6.61,0,1,1-6.61-6.61A6.61,6.61,0,0,1,22.86,365.08Z"/><path class="cls-23" d="M77.08,343.77V296.29H66.31v47.48a12.13,12.13,0,0,1-10.22,12l-35.91,5.71a4.66,4.66,0,0,0-3.93,4.6h0a1.66,1.66,0,0,0,1.66,1.66H127.14v-1.66a4.65,4.65,0,0,0-3.93-4.6l-35.9-5.71A12.14,12.14,0,0,1,77.08,343.77Z"/><path class="cls-22" d="M133.75,365.08a6.61,6.61,0,1,1-6.61-6.61A6.61,6.61,0,0,1,133.75,365.08Z"/><path class="cls-24" d="M54.71,363.28,63,352.06a12.1,12.1,0,0,1-6.94,3.69l-35.91,5.71a4.66,4.66,0,0,0-3.93,4.6h0a1.66,1.66,0,0,0,1.66,1.66h36.8Z"/><path class="cls-25" d="M76.78,296.29H66.31v47.48a11.83,11.83,0,0,1-.42,3.17l10.89-33Z"/><path class="cls-26" d="M64.71,349.78h0Z"/><path class="cls-27" d="M133.89,296.29H49.47s-37.82.4-46.4-21C-7,250.26,9.14,107.16,29.94,96.37s60.28-5.68,63.43-.14-28,175.83,17.6,174.31l43.69,2.38s8-.47,8.6,11.61-16.53,11.28-16.53,11.28Z"/><path class="cls-28" d="M152.59,272.81,111,270.54a15.29,15.29,0,0,1-9.21-2.55h0c23,21.74,50.83,4.82,50.83,4.82Z"/><path class="cls-29" d="M153.54,290.86c-.63-12.08-8.6-11.61-8.6-11.61l-43.68-2.38C55.67,278.39,86.8,108.1,83.65,102.56c-2.88-5.08-36.3-9.79-57.87-2.22C7.07,126.08-6.3,252,3.07,275.31c8.57,21.38,46.4,21,46.4,21h84.42l12.84-.48a28.56,28.56,0,0,0,6.08-.51A9.59,9.59,0,0,0,153.54,290.86Z"/><path class="cls-30" d="M311.06,157.69c-11.05,1.59-8.66,6.53-8.66,6.53h25.27C328.47,163.43,322.11,156.11,311.06,157.69Z"/><path class="cls-4" d="M313,157.51c-.63,0-1.27.09-1.93.18-11.05,1.59-8.66,6.53-8.66,6.53h23.05C326.14,163.53,321.44,158,313,157.51Z"/><path class="cls-31" d="M112.86,61.1C105.85,37.68,98,24,89.42,20.55A24.32,24.32,0,0,0,80,18.36l-5.31.93c5.77-3.18,11.72-6.52,17-4.34,10.46,4.27,19.28,18.8,27,44.41Z"/><ellipse class="cls-32" cx="113.47" cy="59.32" rx="8.34" ry="13"/><ellipse class="cls-31" cx="115.62" cy="60.02" rx="6.05" ry="10.28"/><path class="cls-33" d="M116.78,63.74c3,9.8,3.64,13.87,11,14"/><rect class="cls-31" x="125.57" y="75.34" width="7.25" height="5.08" rx="2.54" transform="translate(258.38 155.75) rotate(-180)"/><path class="cls-34" d="M486,353.37V314.69h-8.66v38.68a6.38,6.38,0,0,1-6.38,6.38h0a3.6,3.6,0,0,0-3.6,3.6v1.74a1.56,1.56,0,0,0,1.56,1.56h26.78a1.56,1.56,0,0,0,1.56-1.56v-1.74a3.61,3.61,0,0,0-3.61-3.6h-1.27A6.38,6.38,0,0,1,486,353.37Z"/><path class="cls-35" d="M389,353.37V314.69h-8.66v38.68a6.38,6.38,0,0,1-6.38,6.38h0a3.6,3.6,0,0,0-3.6,3.6v1.74a1.56,1.56,0,0,0,1.56,1.56h26.78a1.56,1.56,0,0,0,1.56-1.56v-1.74a3.61,3.61,0,0,0-3.61-3.6h-1.27A6.38,6.38,0,0,1,389,353.37Z"/><path class="cls-36" d="M486.39,139.84H482.9a32.93,32.93,0,0,0-32.83,32.84v43.18H374.68a26.3,26.3,0,0,0-26.22,26.22v55.74a16.92,16.92,0,0,0,16.87,16.87h127a27,27,0,0,0,26.88-26.88V172.68A32.93,32.93,0,0,0,486.39,139.84Z"/><path class="cls-4" d="M519.22,172.68a32.93,32.93,0,0,0-32.83-32.84H482.9a32.93,32.93,0,0,0-32.83,32.84v43.18H374.68A26.31,26.31,0,0,0,350,233.33l29.58,81.36H400.3s-15.27-41-1.38-48.82,30,4.13,58.86-4.12,49.48-33.41,49.48-45.37,12-29.7,12,16.91V172.68Z"/><path class="cls-11" d="M488.29,72s-13.22-3-13.22-10.5V39.29S480,9.92,444.28,22.21c0,0-9.42,11.33-13,23.82-1,3.36-1.25,6.41,2.25,6.54h0A1.36,1.36,0,0,1,434.79,54c-.2,4,1,15.26,20.18,17.57a3.09,3.09,0,0,1,2.63,3.84l-3.72,14.23Z"/><path class="cls-37" d="M456.11,81.1l1.67.81s12.26-4.12,9.78-9.07-1.85-9.8,2.17-8.25a10.45,10.45,0,0,0,6.37.35,6.43,6.43,0,0,1-1-3.44V59.41l-7.49-4.21s-3.52,3.31-5.28,3-1-3.78-1-3.78L455.53,71.7a3.08,3.08,0,0,1,2.07,3.71Z"/><path class="cls-38" d="M441.27,40.77c3.61-3.09,10.31,1,7.83,4.33s-4.09,2.29-5.67,4.74,3.2,5.4,3.2,5.4l4.23,7.7,10.2-10.72.52-22.07-7-3.3L441.8,25.47c-1.16,1.62-2.62,3.77-4.11,6.29A7.83,7.83,0,0,0,440.62,33c1.88.27-4.61,9.69-5.13,13s-4,5.89-4.88,3.92c.1,1.51.86,2.55,2.87,2.62a1.39,1.39,0,0,1,1.06.58l3.21-2S437.66,43.86,441.27,40.77Z"/><path class="cls-39" d="M461.39,237.31l-71.2,7A95.6,95.6,0,0,0,317,291.18L286.69,343H277s17.08-130.33,97.67-146c7.76-1.51,15.76-3.36,24.64-4.16,4.63-.4,9.52-.48,14.55-.48l32.32.4Z"/><path class="cls-40" d="M413.87,192.36c-5,0-9.92.08-14.55.48A134.09,134.09,0,0,0,374.68,197c-24,6.8-41.95,21.15-55.39,36.69a4,4,0,0,0-.94,3.25v0c3.3,23.53,9.35,22.43-2.75,37.28-10.68,13.11-29.49,46.36-31.11,68.73h2.2L317,291.18a95.6,95.6,0,0,1,73.22-46.9l8-.79,36.88-50.87Z"/><path class="cls-39" d="M491.28,192.82s3.05,62.23-88.15,55a22.86,22.86,0,0,0-23.87,28.77L394.66,343H381.88L348.5,269.71s-21.6-38.73,8.31-58a46.68,46.68,0,0,1,11.63-5.3l45.43-14Z"/><path class="cls-41" d="M491.28,192.82l-77.41-.42-40.64,12.5h0s2,16.35,13.18,22.37,7.42,11.38,0,15.51c-3.68,2-.78,5.29,4.07,7.7a22.64,22.64,0,0,1,12.65-2.65c5,.39,9.66.57,14.09.57,0-.24-2.24-27.12,22-37s54.28-5.18,40.76,13.49A52.11,52.11,0,0,0,491.28,192.82Z"/><path class="cls-42" d="M457.73,75.22S325.53,140,398.89,227.27l7.85-2.35-2.83-43.53A25.64,25.64,0,0,1,422,155.2l27.17-8.26Z"/><path class="cls-43" d="M412.51,106.64c-11.29,10.34-22.08,23-28.81,37.37,2.19-4.44,8.93-15.64,18.89-9.16,12.28,8-1.2,17.6-8.07,36s5.93,50.87,5.93,50.87l-3.31,3.4c.57.71,1.15,1.42,1.75,2.13l7.85-2.35-2.83-43.53A25.64,25.64,0,0,1,422,155.2l18.9-5.75,6.21-25,2.92-29.7Z"/><path class="cls-42" d="M488.29,72s-30.37-8.19-45.51,17.8c-13.39,23-19.63,39.66-28.91,102.76,0,0,56.82.26,74.38.26C518.45,192.82,488.29,72,488.29,72Z"/><path class="cls-44" d="M442.78,89.8c-5.59,9.59-9.93,17.18-13.77,28.4,12.35,6.11,38,20.74,38.65,29.3.83,11.27-47.57,23.09-26.94,33,18.83,9,7.84,11.8,5.78,12.21,15.89,5,33.35.3,41.75.12,23.17-.49-3.63-120,0-120.82C488.29,72,457.92,63.81,442.78,89.8Z"/><path class="cls-11" d="M398.89,227.27s4,8.75-2.57,15.36c-1.84,1.84,8.31,13.44,12,0,2.47-9-1.54-17.71-1.54-17.71Z"/><path class="cls-45" d="M428,189.62a1.47,1.47,0,0,0,1.51-1.43,1.43,1.43,0,0,0-1-1.35v-3.9h8.07a1.91,1.91,0,1,1,0,3.82,1.43,1.43,0,1,0,0,2.86,4.78,4.78,0,1,0,0-9.54H428a2.45,2.45,0,0,0-2.5,2.38v4.77A2.45,2.45,0,0,0,428,189.62Z"/><path class="cls-11" d="M462.06,192.23c-1.16.21-10.61,1.44-11.69,1.54-9,.8-15.15-2.35-15.8-5.41-.72-3.43,1-6.2,6.61-9.22,3.64-2,10.22,2.17,15.76,4.31a18,18,0,0,0,7.07.73Z"/><path class="cls-46" d="M432.53,182.89c3.19,23.28-26.25,34.24-25.46-4l8.9,1.39c2.24,13.73,7.81,12.14,8.64,1.35Z"/><path class="cls-45" d="M407,178.77v3.41c9.17,9.56,17.86,11.61,25.76,3.37v-7.82c0-1.29-1.7-2.07-3-2.3-7-1.23-14.8-1.5-20.79.55A3,3,0,0,0,407,178.77Z"/><ellipse class="cls-47" cx="420.2" cy="177.32" rx="10.74" ry="1.59"/><path class="cls-42" d="M544.77,168.62c-6,18.52-31.17,29.73-85.93,27.75,0,0-8.95-20.45-.35-17.53,11.26,3.84,87.9-11.38,22.61-50.78-2.76-1.67-6.16-1.89-9.15-3.11l-.27-.11a26.43,26.43,0,0,1-16.18-20.58c0-.16-.05-.32-.06-.48a26.41,26.41,0,0,1,5-19.23l1.87-2.5a26.44,26.44,0,0,1,16.91-10.3c6.72-1.1,14.19.13,18.84,5.12C530,111.19,552.24,145.57,544.77,168.62Z"/><path class="cls-22" d="M477.64,25c-11.77-10.25-24.16-9.63-22.43-14.73s-12.11-9.06-20.79,3.78l-.26.38a10.36,10.36,0,0,0,10.15,15.91c3.92-.53,7.74-.29,10.9,3.9,5.7,7.55,3.05,18.07,3.05,18.07-.48,2.6-4.93,8-11.63,2.89s-10.4-4.33-11.94-3.7a1.62,1.62,0,0,0-.92,2c.82,3,2.6,12.23-5.55,17.27-9.78,6.06-16.93,10.18-19.13,22s12.65,32.45,34.1,23.65S458,63.08,461.75,52.77c0,0,5.2-15.48,10-9.63,4.43,5.36-2.91,9.37-5.36,13.72s2.34,4.64,2.34,4.64h4.54a4.16,4.16,0,0,0,3.07-1.35C480.75,55.39,493.61,38.94,477.64,25Z"/><path class="cls-48" d="M469.86,48.43s1.45-3.36,0-4-4.81,3.37-3.78,4,1.95,3.85-.19,3.72-3.93,2.61-2,3S469.25,50.7,469.86,48.43Z"/><path class="cls-49" d="M544.77,168.62c-9-17-21.35-32.21-28-35.37-11-5.22,7.22-45.83-30.15-48.67-28.55-2.16-27.32,27.54-27.28,28.5l-.06-.09L457,108.83a24.93,24.93,0,0,1-1.59-5,26.41,26.41,0,0,1,5-19.23l1.87-2.5a26.44,26.44,0,0,1,16.91-10.3c6.72-1.1,14.19.13,18.84,5.12C530,111.19,552.24,145.57,544.77,168.62Z"/><path class="cls-42" d="M277,343s-4.86,14.31-16.4,13.49c-5.93-.42-8.89,2.27-10.36,5a3.52,3.52,0,0,0,3.12,5.19h26.21a4.67,4.67,0,0,0,4.68-4.79c-.15-5.64,0-14.76,2.43-18.87"/><path class="cls-42" d="M381.88,343s5.5,9.9,0,11.83c-4.44,1.56-16.28-.46-20.54,5.74a3.93,3.93,0,0,0,3.31,6.09H395.4a3.21,3.21,0,0,0,3.2-3.52c-.6-6-2-17.92-3.94-20.14"/><path class="cls-50" d="M534.75,213.4h0Z"/><rect class="cls-51" x="347" y="39.01" width="7.8" height="42.49" transform="translate(701.81 120.5) rotate(180)"/><rect class="cls-6" x="332.91" y="58.15" width="7.8" height="23.34" transform="translate(673.63 139.64) rotate(180)"/><rect class="cls-6" x="318.82" y="71.56" width="7.8" height="9.93" transform="translate(645.45 153.06) rotate(180)"/><path class="cls-52" d="M407.48,203.57c9.65-1.64,18.67-2.18,25,1.84Z"/></g></g></svg>